<?xml version="1.0" encoding="UTF-8"?><svg id="b" xmlns="http://www.w3.org/2000/svg" viewBox="0 0 844.63 212.48"><defs><style>.d{fill:#1e3e66;}.d,.e,.f,.g,.h,.i{stroke-width:0px;}.e{fill:#ee9d2b;}.f{fill:#45a349;}.g{fill:#72bae2;}.h{fill:#a8b1b9;}.i{fill:#555c63;}</style></defs><g id="c"><path class="d" d="m177.06,114.49c-3.59-3.93-7.08-8.16-11.36-11.59-1.56-1.25-1-3.09-1.01-4.68-.15-15.33-.4-30.65-.22-45.98.05-4.5-1.43-5.62-5.67-5.35-5.81.37-11.66.18-17.49.08-6.24-.11-9.59-3.28-9.75-9.54-.19-7.32-.12-14.66.02-21.99.06-2.83-.52-4.03-3.8-4.01-35.99.26-71.97.32-107.96.51-6.18.03-8.53,2.79-8.49,9.68.19,34.32.21,68.64.81,102.95.14,8.18-1.02,15.03-7.95,20.06-1.02.74-1.68,1.99-2.95,3.57-.13-1.81-.3-3.17-.31-4.53C.61,101.88.28,60.06,0,18.25-.07,7.55,6.66.84,17.37.78,56.85.53,96.34.33,135.82,0c2.89-.02,4.98.7,6.98,2.84,10.69,11.44,21.49,22.77,32.29,34.1,1.33,1.4,2.01,2.84,2.01,4.85-.06,24.15-.04,48.3-.04,72.7Z"/><path class="g" d="m134.92,54.79c-4.77,0-9.54,0-14.31,0-30.99.02-61.99-.07-92.98.16-4.51.03-5.68-1.28-5.51-5.61.33-8.48.19-16.99.04-25.49-.05-2.96.8-4.09,3.94-4.08,31.32.1,62.65.09,93.98.02,2.75,0,3.95.73,3.83,3.64-.17,3.99.23,8.01-.04,11.99-.6,8.82,2.37,15.35,11.06,19.37Z"/><path class="d" d="m312.95,88.29c4.67-7.27,10.22-11.36,18.25-10.38,5.49.67,8.13,4.49,9.16,10.03,3.05-3.76,5.9-7.26,10.17-9.05,9.51-3.97,17,.79,16.75,11.15-.25,10.31-1.31,20.6-1.98,30.9-.23,3.64-.84,7.37,1.29,10.69,1.22,1.9.02,2.74-1.28,3.57-4.03,2.55-8.35,3.17-12.89,1.64-3.6-1.21-3.95-4.22-3.74-7.33.61-8.97,1.32-17.93,1.99-26.89.02-.33.13-.67.09-.99-.49-3.4,2.67-8.11-2.93-9.69-3.4-.96-8.41,4.94-8.77,9.89-.72,10.13-1.56,20.25-1.98,30.39-.15,3.64-1.18,4.76-4.92,4.71-11.55-.14-11.47.04-10.56-11.42.74-9.29,1.3-18.6,1.84-27.9.12-2.13.23-4.6-2.28-5.54-2.34-.87-4.14.46-5.62,2.24-2.27,2.74-3.68,5.61-3.81,9.42-.34,9.98-1.29,19.93-1.81,29.9-.14,2.62-1.12,3.25-3.63,3.32-13.41.4-13.36.24-12.03-12.95,1.32-13.08,2.19-26.21,2.8-39.34.19-4.13,1.73-5.62,5.51-5.58.33,0,.66-.07.99-.11q9.6-1.04,9.37,9.33Z"/><path class="f" d="m48.2,194.65c-2.87.26-5.25-.86-7.19-2.82-9.97-10.03-19.95-20.06-29.82-30.19-2.9-2.98-2.88-6.15.22-9.18,2.97-2.91,5.82-5.94,8.76-8.89,3.63-3.64,6.11-3.64,9.72-.05,4.6,4.58,9.3,9.05,13.74,13.78,2.08,2.22,3.38,1.98,5.68.17,15.71-12.31,31.55-24.47,47.4-36.6,4.86-3.72,6.05-3.49,10.43,1.21,4.2,4.52,4.37,6.34.56,10.65-16.98,19.19-34.01,38.35-51.04,57.5-2.24,2.51-4.73,4.68-8.45,4.41Z"/><path class="d" d="m213.41,118.48c5.16,2.87,10.19,4.87,15.71,5.69,3.07.46,6,.18,8.89-.6,3.95-1.08,6.88-3.51,7.79-7.63.95-4.34.03-8.25-3.58-11.27-4.25-3.56-9.36-5.72-13.93-8.74-12.67-8.37-16.3-21.58-8.95-34.2,5.19-8.91,14.06-11.88,23.69-12.62,6.69-.51,13.2.92,19.55,3.24,2.88,1.05,3.42,2.54,2.41,5.21-1.06,2.8-1.13,6.53-3.05,8.29-2.33,2.14-5.11-1.51-7.92-1.84-4.27-.5-8.43-1.69-12.84-.36-4.05,1.22-6.87,3.33-7.56,7.64-.67,4.17.74,7.68,4.26,9.94,4.19,2.69,8.7,4.88,12.93,7.52,12.46,7.79,15.93,16.8,12.3,31.04-1.98,7.75-7.02,12.86-14.12,15.74-12.22,4.94-24.42,3.89-36.41-1.16-2.47-1.04-3.66-2.47-2.59-5.32,1.27-3.38,2.26-6.87,3.45-10.57Z"/><path class="d" d="m31.02,196.87c.87.75,1.87,1.4,2.58,2.28,6.05,7.45,18.26,10.39,28.34,1.17,2.7-2.47,5.35-3.69,9.14-3.68,27.64.09,55.29-.04,82.93-.19,3.59-.02,8.3.82,9.92-3.02,2.01-4.78,5.01-8.15,8.96-11.2,3.95-3.05,6.4-7.4,9.21-12.88,0,8.84.48,16.48-.13,24.04-.65,8.08-9.31,15.35-17.76,15.43-49.29.42-98.58.77-147.87,1.05-9.02.05-15.29-6.44-15.32-15.44-.04-8.99,0-17.98.02-26.98,0-.26.27-.52.6-1.1,3.61,4.42,8.51,7.41,11.39,12.35,0,4.49.03,8.98.02,13.47-.01,3.37,1.75,4.79,5,4.75,4.33-.06,8.65-.04,12.98-.05Z"/><path class="d" d="m391.67,85.65c4.64-4.83,9.24-8.11,15.58-7.96,6.19.14,10.78,2.94,12.72,8.65,4.95,14.54,3.65,28.64-5.2,41.38-5.38,7.74-13.45,10.63-22.76,9.51-2.94-.35-4.15.08-4.17,3.38-.03,5.82-.7,11.63-.85,17.45-.06,2.52-.9,3.56-3.45,3.67-4.3.19-9.75,2.39-12.54.51-2.58-1.74-.2-7.68.07-11.73,1.5-22.74,3.28-45.46,4.87-68.19.14-2.03.71-3.1,2.81-3.2,1.83-.09,3.65-.3,5.47-.44q6.89-.5,7.44,6.96Zm14.36,17.23c-.43-4.25.67-9.91-5.32-12.15-3.39-1.27-8.38,3.33-10.07,8.69-.29.93-.39,1.94-.45,2.92-.37,5.96-.73,11.92-1.04,17.88-.33,6.36,2.7,8.28,8.58,5.46,3.23-1.55,4.95-4.39,6.06-7.56,1.66-4.73,2.19-9.67,2.23-15.24Z"/><path class="f" d="m560.51,87.65c2.77-2.55,4.76-4.76,7.11-6.44,4.67-3.35,9.95-3.87,15.16-1.6,5.18,2.25,5.54,7.14,5.27,11.92-.61,10.8-1.47,21.59-2.11,32.39-.13,2.13-.48,4.74.52,6.36,2.53,4.1-.33,5.23-2.96,6.51-2.28,1.1-4.79,1.19-7.34,1.02-4.69-.32-6.98-2.65-6.68-7.4.64-10.13,1.28-20.27,1.91-30.4.17-2.77,1.14-6.12-2.22-7.43-3.18-1.24-5.14,1.47-6.99,3.61-2.01,2.33-3.05,4.9-3.2,8.12-.46,9.81-1.4,19.59-1.93,29.4-.14,2.63-1.08,3.26-3.59,3.35-13.53.52-13.42.6-12.17-12.73,1.26-13.43,2.39-26.87,3.29-40.32.2-3.02,1.1-4.13,4.03-4.13,2.49,0,5.03-.15,7.45-.69,4.29-.95,5.4.7,4.46,4.64-.22.93-.03,1.96-.03,3.82Z"/><path class="f" d="m637.52,112.73c-.21-6.98,1.24-13.58,4.39-19.79,5.96-11.78,19.83-17.43,32.25-13.08,6.02,2.11,10.31,6.12,11.93,12.43,2.92,11.4,2.02,22.53-3.44,32.99-5.84,11.17-20.81,16.36-32.41,11.48-7.72-3.24-11.01-9.75-12.26-17.56-.34-2.13-.31-4.32-.45-6.48Zm33.68-7.3c-.11-2.49-.05-5.01-.38-7.47-.5-3.69-1.21-7.59-5.8-8.22-4.68-.65-6.97,2.55-8.3,6.39-2.79,8.02-3.37,16.25-1.85,24.6.66,3.63,1.99,6.89,6.36,7.16,4.34.26,6.14-2.9,7.38-6.26,1.91-5.2,2.58-10.65,2.6-16.2Z"/><path class="f" d="m756.71,110.57c.52-9.92,2.85-21.22,14.45-28.24,5.88-3.55,12.18-4.49,18.74-3.3,6.15,1.12,10.77,4.46,12.24,10.94,1.61,7.12-.18,13.29-6.09,17.79-5.17,3.94-11.39,5.29-17.67,6.32-5.66.93-6.49,2.84-3.45,7.74,2.01,3.24,5.03,4.75,8.74,4.96,3.22.18,6.17-.89,9.22-1.78,1.96-.57,3.94-5.07,6.2-1.06,3.16,5.63,2.51,8.04-2.41,10.53-8.72,4.41-17.95,5.07-27.14,2.03-8.88-2.94-12.82-10.75-12.83-25.93Zm30.46-16.08c-.01-4.55-2.66-6.72-6.52-5.34-3.92,1.4-8.01,10.72-6.98,15.46.41,1.87,1.56,1.29,2.6,1.23,5.76-.34,10.7-5.27,10.9-10.85,0-.16,0-.33,0-.49Z"/><path class="d" d="m491.27,121.65c4,9.31,3.38,10.89-5.87,14.43-6.57,2.51-13.39,2.62-20.14,1.1-7.06-1.59-11.83-6.05-13.66-13.11-3.44-13.24-2.26-25.83,6.59-36.82,5.44-6.76,12.76-10,21.54-9.39,8.03.55,13.47,4.54,15.11,10.87,2.1,8.1-.75,15.76-7.61,20.01-5.04,3.12-10.7,4.71-16.52,5.21-4.77.41-4.84,2.65-3.5,6.18,1.81,4.78,6.83,7.29,12.72,6.35,4.17-.67,7.75-2.75,11.35-4.81Zm-24.43-18.8c.11,1.11-1.11,2.9,1.7,2.87,5.79-.05,11.22-4.85,11.75-10.74.25-2.71.27-5.55-2.88-6.63-2.88-.99-5.18.56-6.86,2.76-2.59,3.39-3.43,7.43-3.71,11.75Z"/><path class="e" d="m149.08,189.57c-3.69.97-4.85-.75-4.17-4.18.65-3.3-.74-4.65-3.98-5.32-3.72-.77-7.24-2.33-10.47-4.51-2.1-1.42-2.7-2.64-.62-4.57,1.08-1.01,2.04-2.23,2.78-3.51,1.35-2.34,2.65-2.07,4.78-.77,4.62,2.82,9.66,4.41,15.21,3.28,2.46-.5,4.54-1.55,4.88-4.25.34-2.65-1.22-4.55-3.51-5.47-3.84-1.56-7.85-2.7-11.73-4.17-8.6-3.25-12.28-7.88-12.16-15.1.12-7.55,4.21-13.05,12.41-15.53,3.34-1.01,4.82-2.63,4.47-5.84-.54-4.97,3.03-3.4,5.53-3.78,3.69-.56,3.67,1.72,3.43,4.21-.27,2.78.13,4.89,3.62,5.09,1.27.07,2.5.86,3.73,1.35,7.93,3.17,8.01,3.65,2.97,10.35-1.35,1.8-2.33,2.23-4.43,1.09-4.17-2.26-8.68-3.3-13.47-2.3-2.46.52-4.52,1.68-4.76,4.38-.23,2.59,1.79,3.79,3.88,4.57,4.2,1.57,8.54,2.77,12.65,4.53,8.75,3.77,11.54,8.25,10.97,16.89-.45,6.87-5.21,12.38-13.26,14.24-3.22.74-4.25,2.1-3.84,4.98.55,3.95-1.3,5.09-4.91,4.36Z"/><path class="f" d="m614.17,117.89c3.9-11.08,7.77-22.17,11.73-33.22.7-1.96.78-5.02,2.98-5.39,3.72-.62,7.67-.57,11.43-.07,2.18.29.42,2.15.03,3.15-5.23,13.49-10.52,26.95-15.8,40.42-.42,1.08-.89,2.16-1.28,3.25-3.89,11.01-3.9,10.8-15.22,11.13-3.98.12-5.28-1.12-6.08-4.92-3.33-15.95-6.92-31.84-10.68-47.7-.97-4.1-.94-5.84,4.19-5.71,11.91.3,11.93.02,13.76,11.92,1.39,8.99,2.74,17.99,4.11,26.99.27.04.54.09.82.13Z"/><path class="f" d="m522.75,136.92c-8.18-.02-8.3-.03-7.69-7.97,1.89-24.71,3.92-49.41,5.74-74.13.2-2.78,1.09-3.59,3.8-3.78,13.31-.96,13.26-1.04,12.25,12.18-1.71,22.4-3.59,44.79-4.88,67.21-.32,5.48-1.95,7.48-7.22,6.51-.64-.12-1.33-.02-1.99-.02Z"/><path class="d" d="m448.05,57.63c-1.49,20.72-2.95,41.45-4.48,62.17-.26,3.51-.8,7.13,1.16,10.21,2.1,3.31.3,4.78-2.19,6.15-2.22,1.22-4.62,1.79-7.18,1.65-6.32-.35-8.8-2.85-8.37-9.1,1.05-15.43,2.23-30.84,3.42-46.26.73-9.44,1.63-18.88,2.28-28.32.17-2.43.85-3.68,3.48-3.5,1.31.09,2.65-.19,3.97-.35q8.28-1.04,7.93,7.35Z"/><path class="f" d="m716.08,112.9c.23-11.76,2.91-22.49,13.2-29.72,7.16-5.04,15.1-5.48,23.39-3.33,4.33,1.12,5.94,3.04,4.08,7.77-1.38,3.5-1.72,5.64-6.54,3.76-7.08-2.75-12.69.47-15.45,7.62-2.41,6.24-2.53,12.77-1.42,19.19,1.35,7.83,7.5,10.53,15.12,7.4,1.58-.65,4.02-3.88,5.06-.76.96,2.88,3.72,7.2-1.13,9.68-8.53,4.38-17.46,5.93-26.28,1.29-8.05-4.23-9.8-12.07-10.01-20.41-.02-.83,0-1.66,0-2.5Z"/><path class="f" d="m826.02,90.47c1.54-2.39,2.68-4.3,3.96-6.12,1.55-2.2,3.38-4.17,6.01-5.04,2.57-.86,5.44-1.38,7.66.26,2.18,1.6.03,3.98-.06,6.01-.06,1.47-.6,2.92-.94,4.38-.67,2.86-.81,5.34-5.46,4.22-5.43-1.3-11.33,4.87-12.31,12.56-1.06,8.39-1.56,16.87-1.92,25.33-.16,3.67-1.01,5.47-5.1,5.01-3.77-.42-8.84,1.18-11.09-.74-2.46-2.09-.06-7.13.19-10.87.91-13.6,2.19-27.17,3.06-40.77.2-3.14,1.13-4.38,4.3-4.43,3.63-.06,8.07-2.03,10.67-.55,2.92,1.67-.31,6.6,1.03,10.75Z"/><path class="d" d="m286.83,103.08c-.38,6.48-.72,12.95-1.17,19.42-.18,2.52-.56,5.31.64,7.37,2.56,4.42-.36,5.66-3.4,6.78-2.66.98-5.44,1.06-8.34.57-4-.68-5.97-2.71-5.7-6.73,1.08-16.1,2.19-32.19,3.31-48.29.05-.65.11-1.39.44-1.91.66-1.04,14.62-2.18,15.61-1.37.99.83.3,1.84.23,2.75-.51,7.13-1.07,14.26-1.62,21.4Z"/><path class="f" d="m704.5,79.66c7.81-.33,7.68-.34,7.08,7.28-.98,12.27-1.8,24.55-2.61,36.84-.15,2.3-.61,4.88.81,6.82,2.32,3.15.31,4.53-2,5.7-3.74,1.89-7.75,1.93-11.66.69-4.1-1.3-4.03-4.91-3.81-8.27.61-9.3,1.38-18.58,2.06-27.87.37-5.14,1.01-10.3.93-15.43-.08-4.68,2-6.07,6.21-5.64.98.1,1.99-.07,2.99-.11Z"/><path class="h" d="m87.79,81.87c-15.96,0-31.93,0-47.89,0-1.16,0-2.33.05-3.49-.03-2.49-.18-4.13-1.46-4.2-4.02-.06-2.49,1.92-3.35,3.92-3.8,1.27-.28,2.65-.16,3.97-.16,32.43-.03,64.86-.04,97.29-.07,2.71,0,5.72-.35,5.66,3.67-.06,3.81-2.72,4.42-5.87,4.42-16.46-.03-32.93-.02-49.39-.02v.02Z"/><path class="h" d="m398.89,152.38h409.09c0,.31,0,.61,0,.92h-409.1c0-.31,0-.61.01-.92Z"/><path class="h" d="m84.02,103.83c-14.82,0-29.64,0-44.47,0-1.65,0-3.34.25-4.88-.64-1.57-.9-2.62-2.2-2.4-4.03.21-1.82,1.49-2.95,3.28-3.29.97-.18,1.99-.12,2.99-.12,30.31,0,60.62,0,90.93,0,.5,0,1,.01,1.5,0,2.94-.05,5.03,1.14,4.89,4.28-.12,2.85-2.19,3.82-4.88,3.82-9.16-.02-18.32,0-27.48,0-6.5,0-12.99,0-19.49,0v-.02Z"/><path class="h" d="m54.99,125.71c-5.65,0-11.3-.02-16.96,0-2.99.01-5.58-.97-5.69-4.22-.1-3.04,2.61-4.31,5.17-4.35,11.3-.17,22.61-.17,33.91-.02,2.93.04,5.32,1.75,5.04,4.99-.26,3.05-2.67,3.73-5.52,3.65-5.32-.14-10.64-.04-15.96-.04v-.02Z"/><path class="i" d="m622.68,193.85c.49-4.74.96-9.49,1.47-14.23.16-1.43-.02-3.14,2.25-3.14,2.69,0,1.74,1.93,1.63,3.2-.61,6.94-1.35,13.87-2.01,20.81-.12,1.23-.25,2.35-1.85,2.39-1.67.05-3.32.23-4.23-1.73-1.62-3.46-3.32-6.87-5.02-10.29-1.02-2.05-2.08-4.07-4.2-6.08-.6,4.74-1.17,9.49-1.79,14.23-.22,1.68.28,4.2-2.62,3.69-2.62-.46-1.2-2.72-1.08-4.08.5-5.62,1.03-11.25,2.02-16.79.33-1.84-1.15-4.94,2.68-5.42,3.37-.42,3.63,2.18,4.61,4.13,2.28,4.56,4.51,9.14,6.76,13.72.46-.14.92-.27,1.38-.41Z"/><path class="i" d="m329.84,197.23c-.07-3.14,1.47-5.51,4.02-7.01,2.18-1.27,2.64-2.57,1.62-4.85-.51-1.14-.59-2.64-.4-3.91.47-3.23,2.69-4.86,5.76-5.36,2.58-.42,5.16-.27,6.53,2.39,1.44,2.81-.14,5.08-1.76,7.29-1.03,1.41-3.8,1.78-3.25,3.92.42,1.63,1.75,3.66,3.19,4.23,1.78.7,1.89-1.73,2.37-2.97.69-1.78,2-1.67,3.24-1.15,1.42.6.4,1.64.11,2.5-.97,2.94-4.87,5.28-1.25,9.21.78.84-2.49,2.02-3.27,1.2-2.27-2.41-4.01-.82-6.1,0-5.65,2.23-10.65-.39-10.81-5.51Zm8.56,2.8c1.71-.32,4.36-.58,4.03-2.64-.4-2.45-2.13-5.42-4.7-5.76-1.92-.26-3.62,2.24-3.61,4.62,0,2.61,1.62,3.85,4.29,3.79Zm3.7-20.4c-2.03.17-3,1.35-2.96,3.29.03,1.28.07,3.11,1.94,2.67,1.84-.43,2.99-2.07,3.23-4.04.19-1.59-.94-1.91-2.22-1.92Z"/><path class="i" d="m676.1,196.73c-.6-1.75,2.48-5.19-2.72-5.39-7.94-.3-7.73-.47-8.66,5.11-.37,2.19,1.31,6.61-2.7,6.14-4.19-.49-1.11-4.35-1.04-6.48.2-5.63,1.21-11.23,1.79-16.85.17-1.65.34-2.89,2.48-2.8,2.66.12,1.53,1.96,1.64,3.25.03.33-.04.66-.06,1-.45,6.41,2.77,8.9,8.86,6.9,2.36-.77,1.51-2.99,2.16-4.54.92-2.24-1.26-7,3.21-6.2,3.46.63.74,4.46.67,6.73-.15,5.13-.98,10.25-1.54,15.37-.21,1.87.34,4.49-2.9,3.92-2.99-.53-.89-2.92-1.29-4.41-.12-.46.04-.99.08-1.76Z"/><path class="d" d="m281.9,67.11c-5.59-.04-9.03-3.47-9.03-8.95,0-5.92,4.38-10.19,10.47-10.23,5.72-.04,8.92,3.18,8.86,8.9-.07,6.08-4.33,10.33-10.31,10.28Z"/><path class="f" d="m705.07,69.05c-5.42.03-8.85-3.21-8.97-8.47-.14-6.13,4.06-10.47,10.15-10.48,5.56,0,8.93,3.14,9,8.41.08,6.01-4.26,10.5-10.18,10.54Z"/><path class="i" d="m577.15,200.97c-3.39,1.64-6.57,3.97-9.48.9-2.84-2.99-2.11-6.81-.75-10.33,2.16-5.63,8.37-8.61,14.27-7.28,2.08.47,2.21,1.57,2.01,3.2-.69,5.43-1.11,10.91-2.1,16.28-1.27,6.93-7.8,10.36-14.43,7.98-1.07-.39-1.77-.76-1.29-2.09.61-1.68,1.55-1.4,3.07-1.14,6.53,1.11,8.48-.56,8.71-7.53Zm-7.16-5.13c.01,1.94.32,3.77,2.74,3.94,2.76.2,6.27-5.62,6.5-10.15.09-1.76-.32-2.42-2.06-2.45-3.82-.07-7.25,4.03-7.18,8.66Z"/><path class="h" d="m361.18,153.47h-132.14c0-.3,0-.6,0-.9h132.11c.01.3.02.6.03.9Z"/><path class="i" d="m371.6,202.83c-.17,0-.33,0-.5,0-6.78.02-6.75.02-5.9-6.61.67-5.27,1.47-10.53,1.83-15.82.21-2.96,1.22-4.16,4.22-3.91,2.47.2,4.98,0,7.47.02,1.09,0,2.49-.33,2.32,1.6-.11,1.23-.82,1.71-1.97,1.73-1.16.02-2.33.04-3.49.07-4.04.11-5.95,2.9-4.85,6.78.49,1.73,1.75,1.03,2.75,1.34,1.67.52,4.87-1.51,4.83,1.5-.04,3.33-3.35,1.56-5.19,1.66-2.09.11-3.27.45-3.75,2.84-.8,4.03-.38,6.56,4.63,5.57.64-.13,1.34-.09,1.99,0,1.02.15,2.6-.58,2.78,1.18.19,1.89-1.27,2.03-2.69,2.02-1.5,0-2.99,0-4.49,0Z"/><path class="i" d="m425.51,197.42c1.56-3.66,3.21-7.29,4.65-10.99.7-1.81,2.06-2.43,3.5-1.74,1.61.78.13,2.02-.28,2.92-2.99,6.49-5.97,12.99-9.13,19.4-1.68,3.4-4.48,5.29-8.46,4.97-1.11-.09-1.92-.48-1.84-1.79.06-1.06.8-1.13,1.65-1.4,6.41-2.1,6.97-3.14,5.4-9.61-.9-3.72-1.99-7.4-2.7-11.15-.2-1.04-2.12-2.99.74-3.47,2.09-.35,2.85.82,3.18,2.81.56,3.35,1.44,6.65,2.18,9.98.37.02.74.05,1.12.07Z"/><path class="i" d="m552.12,187.81c1.34-1.08,2.28-2.06,3.41-2.7,1.91-1.09,3.99-1.89,6.12-.61,2.08,1.26,1.8,3.42,1.61,5.38-.34,3.63-.96,7.24-1.21,10.88-.13,1.83-.92,2.19-2.5,2.16-1.71-.04-1.84-1.05-1.69-2.32.37-3.13.79-6.26,1.11-9.39.13-1.28.45-2.8-1.19-3.43-1.43-.55-2.52.27-3.54,1.21-2.92,2.69-3.46,6.24-3.85,9.94-.16,1.53.63,4.16-2.41,3.91-3.23-.26-1.62-2.71-1.52-4.2.25-3.81.81-7.59,1.22-11.39.14-1.32.02-2.61,2-2.79,2.48-.22,1.72,1.82,2.44,3.36Z"/><path class="i" d="m282.84,199.44c-1.23,1.11-1.99,2-2.92,2.62-4.07,2.71-7.5,1.17-8.25-3.65-1.4-8.89,7-16.27,15.73-13.98,1.93.51,1.76,1.56,1.58,2.93-.6,4.59-1.25,9.18-1.75,13.78-.14,1.24-.55,1.65-1.79,1.74-2.31.17-1.99-1.68-2.59-3.43Zm-7.13-3.44c.25,1.22-.11,3.39,2.42,3.67,2.6.29,6.38-5.69,6.68-10.04.12-1.79-.44-2.38-2.14-2.36-3.65.04-6.93,3.87-6.97,8.73Z"/><path class="i" d="m399.1,188.24c-.5,4.49-1.01,8.59-1.38,12.7-.25,2.76-2.9,2.48-3.37,1.53-1.67-3.41-2.78-.85-4.18-.05-3.99,2.28-7.25.79-8.11-3.67-1.69-8.7,6.68-16.42,15.34-14.37,3.07.73,1.47,2.72,1.71,3.86Zm-4.02,1.62c.27-1.74.07-2.93-2.22-2.68-4.31.47-8.23,6.52-6.64,10.55.87,2.21,2.49,2.66,4.31,1.16,2.82-2.32,4.38-5.36,4.55-9.04Z"/><path class="i" d="m695.5,199.66c-1.15.99-2.04,1.96-3.11,2.65-3.87,2.5-7.74.6-8.31-4.01-1.07-8.7,7.13-15.92,15.57-13.91,2.19.52,1.99,1.69,1.79,3.26-.49,3.95-.86,7.92-1.37,11.87-.17,1.28.67,3.07-1.78,3.39-2.51.32-2.14-1.71-2.79-3.25Zm-7.21-3.23c.36,1.12.15,3.36,2.84,3.19,2.49-.16,6.51-6.98,6.52-10.48,0-1.66-.8-1.95-2.11-1.96-3.7-.05-7.32,4.28-7.25,9.25Z"/><path class="i" d="m461.27,187.97c1.47-1.16,2.55-2.2,3.81-2.95,1.77-1.06,3.71-1.5,5.68-.39,1.96,1.11,1.87,3.07,1.71,4.85-.33,3.64-.94,7.25-1.33,10.89-.16,1.52-.53,2.48-2.33,2.48-2.16,0-1.86-1.42-1.74-2.72.29-2.98.73-5.94.95-8.92.09-1.2.7-2.83-1.18-3.31-1.4-.36-2.61.22-3.55,1.31-1.75,2.03-3.4,4.07-3.37,7,.02,1.48-.35,2.97-.46,4.46-.12,1.66-.9,2.36-2.58,2.13-1.82-.24-1.39-1.46-1.26-2.61.48-4.29.95-8.59,1.39-12.89.14-1.32,0-2.7,1.95-2.86,2.55-.21,1.64,1.89,2.3,3.53Z"/><path class="i" d="m265.5,176.11c2.33,1.38,6.37-1.34,6.41,2.02.04,3.49-4.02,1.65-6.08,1.66-4.45.02-3.31,3.08-3.76,5.5-.66,3.54,1.61,3.18,3.85,3.26,1.26.05,3.38-.94,3.41,1.55.03,2.4-2.08,1.85-3.36,1.7-3.61-.43-5.29.86-5.16,4.61.06,1.64-.46,3.29-.65,4.95-.2,1.73-1.47,1.46-2.61,1.48-1.43.03-1.61-.92-1.49-1.99.82-7.44,1.35-14.93,2.61-22.3.77-4.51,4.99-.38,6.84-2.42Z"/><path class="i" d="m630.61,194.89c.22-6.86,3.89-10.98,9.75-10.97,4.51.01,7.21,3.2,7.1,8.39-.14,6.43-4.39,11.16-9.87,10.99-4.72-.15-7.15-3.08-6.98-8.41Zm4-.25c.02,2.7.25,5.75,3.5,5.53,4.42-.31,4.97-4.2,5.17-7.75.14-2.62-.49-5.46-3.79-5.13-4.23.42-4.52,4.12-4.88,7.35Z"/><path class="i" d="m744.08,195.79c-.07-5.54,3.43-10.41,8.38-11.52,2.79-.63,5.49-.43,6.53,2.77.94,2.89-.14,5.26-2.97,6.55-1.34.61-2.82.9-4.24,1.31-1.41.4-3.8-.31-3.35,2.35.39,2.29,2.13,3.22,4.44,2.96.16-.02.34-.1.49-.06,1.52.42,3.8-2.7,4.35.14.42,2.13-2.59,2.55-4.51,2.91-5.65,1.04-9.07-1.76-9.14-7.42Zm11.06-6.57c-.03-1.33-.86-1.88-1.91-1.83-2.28.11-3.48,1.72-4.12,3.66-.34,1.03.56,1.46,1.48,1.24,1.9-.46,3.9-.84,4.55-3.07Z"/><path class="i" d="m509.01,192.07c-.02,6.43-4.05,11.17-9.51,11.2-4.59.02-7.51-3.13-7.43-8.01.11-6.36,4.22-11.2,9.55-11.25,4.55-.04,7.41,3.08,7.39,8.07Zm-4.12,1.06c.16-3.23-.17-6.19-3.5-5.91-4.15.35-4.8,4.12-5.12,7.48-.25,2.61.3,5.54,3.63,5.34,4.41-.27,4.35-4.28,4.99-6.91Z"/><path class="g" d="m31.02,196.87c-4.33.01-8.65,0-12.98.05-3.25.04-5.01-1.37-5-4.75.01-4.49-.01-8.98-.02-13.47,6.46,5.6,12.29,11.82,18,18.16Z"/><path class="i" d="m707.18,199.99c2.13.28,4.3.52,5.02-1.58.83-2.41-1.54-2.94-3.12-3.7-3.33-1.6-5.1-3.86-3.12-7.55,1.53-2.86,7.75-4.29,10.35-2.58.85.56.97,1.24.75,2.11-.2.8-.75.99-1.49.86-.98-.17-1.95-.43-2.93-.49-1.43-.08-2.83.4-3.2,1.85-.38,1.52.74,2.39,2.11,2.91,2.39.9,4.78,1.91,4.99,4.93.2,2.83-1.29,4.79-3.78,5.89-2.88,1.28-5.85,1.22-8.71-.08-.34-.16-.58-1.24-.41-1.74.77-2.23,2.48-.76,3.54-.85Z"/><path class="i" d="m481.94,196.91c4.46-3.22,3-10.8,10.1-12.96-2.04,6.51-4.8,11.43-7.25,16.48-.8,1.65-1.81,2.59-3.83,2.43-2.15-.17-2.12-1.79-2.47-3.17-1-4.03-1.96-8.06-2.86-12.11-.24-1.07-1.63-2.62.8-3.03,1.7-.29,2.87.16,3.25,2.09.67,3.4,1.48,6.76,2.26,10.26Z"/><path class="i" d="m314.73,179.14c.89,2.01-1.62,6.04,3.34,5.49.69-.08,1.12.55,1.05,1.36-.11,1.34-1.01,1.45-2.08,1.53-6.65.54-2.92,6.21-4.37,9.3-1.07,2.28.54,3.42,3.3,3.15,1.84-.18,1.42,1.64.55,2.29-1.68,1.26-3.76,1.11-5.74.6-2.06-.54-2.31-2.19-2.17-3.93.18-2.15.55-4.28.72-6.43.14-1.83,1.39-3.94-1.18-5.22-.31-.15-.34-.86-.5-1.31,3.68-.85,1.91-7.41,7.08-6.82Z"/><path class="i" d="m294.51,200.14c2.16.21,4.3.54,5.08-1.56.88-2.35-1.27-3.09-2.91-3.85-3.31-1.54-5.12-3.83-3.47-7.53,1.21-2.72,7.52-4.22,10.32-2.64.58.33,1.25.59,1.12,1.42-.15.92-.69,1.45-1.7,1.33-.99-.11-1.98-.28-2.97-.31-1.42-.04-2.74.38-3.12,1.9-.34,1.36.72,2.11,1.75,2.7.87.49,1.84.81,2.66,1.36,3.92,2.69,3.54,7.49-.77,9.5-1.85.86-3.89,1.07-5.86.66-1.37-.28-4,.58-3.56-2.12.37-2.27,2.4-.82,3.42-.86Z"/><path class="i" d="m405.37,200.12c1.54.01,3.9.88,4.66-1.75.68-2.35-1.43-3.01-3.09-3.77-3.36-1.54-5.09-3.79-3-7.46,1.64-2.88,7.55-4.32,10.28-2.64.58.36,1.14.67,1,1.49-.16.9-.62,1.61-1.58,1.57-1.14-.05-2.27-.43-3.42-.47-1.39-.05-2.75.31-3.04,1.92-.24,1.35.76,2.15,1.88,2.58,3.59,1.36,6.55,3.39,4.82,7.69-1.63,4.06-5.5,4.4-9.28,3.89-1.22-.16-3.55.36-3.2-2.01.33-2.2,2.18-1.38,3.96-1.05Z"/><path class="i" d="m722.99,200.2c1.87.24,3.97.37,4.77-1.61.98-2.43-1.3-3.06-2.94-3.72-3.75-1.5-5.34-3.94-3.33-7.75,1.52-2.89,7.49-4.19,10.31-2.51.62.37,1.11.72.99,1.49-.14.93-.68,1.51-1.66,1.42-.98-.09-1.96-.38-2.94-.42-1.37-.05-2.79.2-3.22,1.72-.45,1.59.69,2.46,1.99,2.97,3.17,1.26,5.91,2.95,4.63,6.93-1.38,4.28-5.07,4.9-8.91,4.54-1.26-.12-3.61.3-3.5-1.78.13-2.74,2.33-1.4,3.81-1.29Z"/><path class="i" d="m520.7,195.74c.06-7.12,5.19-12.51,11.26-11.71,1.33.18,3.33.04,3.11,2.28-.21,2.13-1.83,1.37-3.05,1.16-5.95-1.01-8.24,6.26-6.72,10.46.79,2.18,2.58,2.72,4.88,2.17.94-.22,2.46-2.32,3.03.2.35,1.56-1.15,2.12-2.47,2.57-5.58,1.89-10.08-1.3-10.04-7.15Z"/><path class="i" d="m452.86,178.54c-.8,7.82-1.49,14.57-2.17,21.33-.17,1.74-.35,3.32-2.82,3.04-2.52-.28-1.7-2.03-1.57-3.33.69-6.76,1.48-13.5,2.21-20.25.17-1.54.23-2.94,2.46-2.85,2.48.1,1.91,1.69,1.89,2.06Z"/><path class="i" d="m735.95,198.67c.82-6.65,1.66-13.37,2.48-20.09.2-1.66.22-3.48,2.7-3.14,2.76.38,1.12,2.3,1.01,3.44-.6,6.74-1.31,13.48-2.11,20.2-.17,1.43,1.63,3.96-1.83,3.97-3.57,0-1.91-2.63-2.26-4.37Z"/><path class="i" d="m517.81,186.93c-.5,4.84-1,9.1-1.36,13.36-.14,1.67-.37,2.83-2.5,2.69-2.58-.17-1.7-1.83-1.56-3.18.44-4.26,1-8.51,1.31-12.78.14-1.93.87-2.62,2.74-2.45,2.22.21,1.37,1.75,1.37,2.35Z"/><path class="i" d="m537.62,199.59c.42-4.09.98-8.35,1.25-12.63.13-2.03,1.04-2.48,2.8-2.45,2.4.05,1.49,1.69,1.37,2.82-.45,4.26-1.03,8.52-1.48,12.78-.17,1.61-.39,2.98-2.54,2.68-2.11-.29-1.4-1.8-1.39-3.21Z"/><path class="i" d="m584.68,209.04c.36-3.45,1.86-6.11,1.83-9.08-.02-1.66,1.57-1.34,2.69-1.27,1.2.08,1.98.76,1.49,1.94-1.26,3.05-1.87,6.62-6,8.4Z"/><path class="i" d="m764.63,203.12c-1.34-.02-2.35-.62-2.47-1.94-.14-1.47.59-2.61,2.2-2.7,1.42-.08,2.69.34,2.73,2.1.03,1.63-1.05,2.28-2.46,2.54Z"/><path class="i" d="m542.28,175.98c1.32-.09,2.36.19,2.25,1.83-.08,1.26-.44,2.32-2.01,2.29-1.11-.03-2.47.34-2.5-1.52-.03-1.56.51-2.59,2.25-2.6Z"/><path class="i" d="m516.91,179.9c-1.4.15-2.4-.09-2.25-1.79.12-1.26.41-2.32,2.01-2.26,1.18.04,2.41-.05,2.5,1.66.1,1.67-.6,2.52-2.26,2.39Z"/></g></svg>